<svg xmlns="http://www.w3.org/2000/svg" viewBox="0 0 765.41 378.78"><defs><style>.cls-1{fill:#f5c33b;}.cls-2{fill:#f3a85c;}.cls-3{fill:#eb5f7a;}.cls-4{fill:#ee7f73;}.cls-5{fill:#cf2d80;}.cls-6{fill:#e7307d;}.cls-7{fill:#b02e85;}.cls-8{fill:#923088;}</style></defs><g id="Layer_2" data-name="Layer 2"><g id="_1" data-name=" 1"><polygon class="cls-1" points="164.02 94.69 218.69 0 109.34 0 164.02 94.69"/><polygon class="cls-2" points="109.34 0 54.67 94.69 164.02 94.69 109.34 0"/><polygon class="cls-3" points="54.67 94.69 0 189.39 109.34 189.39 54.67 94.69"/><polygon class="cls-4" points="109.34 189.39 164.02 94.69 54.67 94.69 109.34 189.39"/><polygon class="cls-5" points="109.34 189.39 54.67 284.08 164.02 284.08 109.34 189.39"/><polygon class="cls-6" points="54.67 284.08 109.34 189.39 0 189.39 54.67 284.08"/><polygon class="cls-7" points="109.34 378.78 164.02 284.08 54.67 284.08 109.34 378.78"/><polygon class="cls-3" points="382.7 94.69 328.03 189.39 437.38 189.39 382.7 94.69"/><polygon class="cls-6" points="382.7 284.08 437.38 189.39 328.03 189.39 382.7 284.08"/><polygon class="cls-5" points="328.03 189.39 273.36 284.08 382.7 284.08 328.03 189.39"/><polygon class="cls-7" points="328.03 378.78 382.7 284.08 273.36 284.08 328.03 378.78"/><polygon class="cls-1" points="492.05 94.69 546.72 0 437.38 0 492.05 94.69"/><polygon class="cls-2" points="437.38 0 382.7 94.69 492.05 94.69 437.38 0"/><polygon class="cls-4" points="437.38 189.39 492.05 94.69 382.7 94.69 437.38 189.39"/><polygon class="cls-8" points="492.05 284.08 437.38 378.78 546.72 378.78 492.05 284.08"/><polygon class="cls-7" points="546.72 378.78 601.39 284.08 492.05 284.08 546.72 378.78"/><polygon class="cls-1" points="273.36 94.69 328.03 0 218.69 0 273.36 94.69"/><polygon class="cls-2" points="218.69 0 164.02 94.69 273.36 94.69 218.69 0"/><polygon class="cls-8" points="273.36 284.08 218.69 378.78 328.03 378.78 273.36 284.08"/><polygon class="cls-2" points="656.06 0 601.39 94.69 710.74 94.69 656.06 0"/><polygon class="cls-4" points="656.06 189.39 710.74 94.69 601.39 94.69 656.06 189.39"/><polygon class="cls-3" points="710.74 94.69 656.06 189.39 765.41 189.39 710.74 94.69"/><polygon class="cls-5" points="656.06 189.39 601.39 284.08 710.74 284.08 656.06 189.39"/><polygon class="cls-8" points="601.39 284.08 546.72 378.78 656.06 378.78 601.39 284.08"/><polygon class="cls-6" points="710.74 284.08 765.41 189.39 656.06 189.39 710.74 284.08"/><polygon class="cls-7" points="656.06 378.78 710.74 284.08 601.39 284.08 656.06 378.78"/></g></g></svg>